<svg xmlns="http://www.w3.org/2000/svg" viewBox="0 0 295.44 204.69"><defs><style>.cls-1{fill:#fff;}.cls-2{fill:#2f80ed;}.cls-3{fill:#ef6f6c;}</style></defs><g id="Слой_2" data-name="Слой 2"><g id="Слой_1-2" data-name="Слой 1"><path class="cls-1" d="M258.31,70.33a90.2,90.2,0,0,0-25.56,14.44,74.06,74.06,0,0,0,14.77-1.61,73.62,73.62,0,0,0,7.87-2.11h0v0q2.63-.85,5.16-1.9v0a75,75,0,0,0,15-8.31h19.89V177.77a28.76,28.76,0,0,1-1.27,6.25,29.48,29.48,0,0,1-28,20.45H29.44a29.83,29.83,0,0,1-3-.15,28,28,0,0,1-4.42-.8h0A29.45,29.45,0,0,1,0,175V29.45a29.05,29.05,0,0,1,.5-5.39h0a27.6,27.6,0,0,1,1.1-4.18A29.43,29.43,0,0,1,27.76.05c.56,0,1.12,0,1.68,0H266.13a29.42,29.42,0,0,1,26,15.68,29,29,0,0,1,3.28,11v8.52h0V49.88A74.77,74.77,0,0,1,283,64.78H270.06a15.33,15.33,0,0,0-7.75,1.93A13.19,13.19,0,0,0,258.31,70.33Z"/><g id="Слой_2-2" data-name="Слой 2"><g id="Слой_1-2-2" data-name="Слой 1-2"><g id="mask0_4_21" data-name="mask0 4 21"><path class="cls-2" d="M147,195c0-.34,0-.68,0-1s0-.66-.07-1v-.1l0-.35h0c0-.46-.06-.92-.1-1.37s-.08-.92-.13-1.38-.1-1-.17-1.49c0-.05,0-.11,0-.16,0-.36-.09-.72-.14-1.08s-.13-.91-.2-1.36-.17-1-.27-1.57c0-.27-.09-.53-.15-.79-.1-.57-.22-1.13-.34-1.69s-.23-1-.35-1.53-.29-1.16-.44-1.74c-.4-1.54-.86-3.07-1.37-4.58-.44-1.34-.93-2.67-1.45-4h0q-.8-2-1.68-3.9c-.91-1.92-1.89-3.82-3-5.67a0,0,0,0,1,0,0h-.14a62.4,62.4,0,0,1-6.41.33c-.77,0-1.54,0-2.31-.05h-.53c-1.26-.06-2.5-.14-3.74-.27s-2.47-.29-3.69-.5l-.33-.05-1.58-.29c-.53-.1-1-.21-1.58-.33-1-.24-2.08-.5-3.1-.78l-1.53-.45c-1-.31-2-.65-3-1l-1.48-.56c-.57-.22-1.12-.45-1.68-.69-1-.44-2.06-.91-3.07-1.41s-2-1-3-1.57l-1.34-.77c-.66-.4-1.32-.8-2-1.22-1.29-.84-2.56-1.73-3.79-2.66-.62-.46-1.23-.94-1.83-1.43-.4-.32-.8-.65-1.19-1s-.57-.49-.85-.74q-.84-.75-1.65-1.53h0c-.54-.52-1.07-1.05-1.6-1.58l-.78-.82c-.51-.55-1-1.11-1.52-1.68s-1-1.15-1.46-1.74-.94-1.18-1.4-1.79c-.68-.91-1.35-1.84-2-2.79A62.74,62.74,0,0,1,73,122.69H72c-2.24,0-4.46.09-6.67.28-.71.06-1.42.14-2.13.22s-1.42.17-2.14.28c-1.42.21-2.84.46-4.24.75-.7.14-1.4.29-2.1.46-.93.21-1.85.45-2.77.71-1.38.39-2.75.81-4.1,1.26s-2.69.95-4,1.49c-.88.35-1.75.73-2.62,1.12s-1.73.8-2.58,1.22l-1.28.65c-.85.44-1.68.89-2.5,1.36-2.07,1.18-4.09,2.46-6,3.83-.54.37-1.09.77-1.62,1.17-1.07.8-2.11,1.62-3.14,2.47-.52.42-1,.86-1.53,1.3Q21,142.58,19.58,144l-1.43,1.43c-.94,1-1.85,2-2.74,3L22,203.52a28,28,0,0,0,4.42.8,29.83,29.83,0,0,0,3,.15H146.67q.33-3.47.33-7C147,196.66,147,195.83,147,195ZM166.56,46.54a3.45,3.45,0,0,1-.13.7c.31.21.62.43.92.66C167.08,47.45,166.81,47,166.56,46.54Z"/><polygon class="cls-2" points="185.66 3.73 211.13 3.73 211.13 6.61 200.06 6.61 200.06 35.23 196.73 35.23 196.73 6.61 185.66 6.61 185.66 3.73"/><rect class="cls-2" x="216.9" y="3.73" width="3.33" height="31.5"/><path class="cls-2" d="M261.31,26.05a15.8,15.8,0,0,1-3.69,5.27A16.82,16.82,0,0,1,252,34.74,20.13,20.13,0,0,1,244.88,36a20.52,20.52,0,0,1-7.11-1.21,16.82,16.82,0,0,1-5.62-3.42,16.34,16.34,0,0,1-3.74-5.27,16.46,16.46,0,0,1-1.3-6.57,16.13,16.13,0,0,1,1.3-6.57,15.89,15.89,0,0,1,3.74-5.22,16.42,16.42,0,0,1,5.62-3.46,20.8,20.8,0,0,1,14.23,0,16.55,16.55,0,0,1,5.63,3.46,15.37,15.37,0,0,1,3.69,5.22,15.66,15.66,0,0,1,1.35,6.57A15.83,15.83,0,0,1,261.31,26.05Z"/><path class="cls-2" d="M295.44,26.71v8.52H292.7L272.45,9.69V35.23h-3.33V3.73h2.74l20.3,25.55V15.68A29,29,0,0,1,295.44,26.71Z"/><path class="cls-3" d="M295.44,70.83V177.77a28.76,28.76,0,0,1-1.27,6.25,29.48,29.48,0,0,1-28,20.45h-52.4a90.26,90.26,0,0,1,19-119.7h0a74.06,74.06,0,0,0,14.77-1.61,73.62,73.62,0,0,0,7.87-2.11h0c1.74-.57,3.45-1.19,5.13-1.89h0a75,75,0,0,0,15-8.31Z"/></g><path class="cls-2" d="M292.7,35.23,272.45,9.69V35.23h-3.33V3.73h2.74l20.3,25.55V15.68A29.42,29.42,0,0,0,266.13,0H27.76V3.73h2.73L44.17,27.07,57.72,3.73h2.74v31.5H57.27V10L44.89,31.23H43.32l-12.38-21v25H27.76v70.61a90.14,90.14,0,0,0,44.36,14.69,62.48,62.48,0,0,1,94.31-73.29,4.3,4.3,0,0,1,.13-.7c.25.46.52.91.79,1.36a62.61,62.61,0,0,1,18.2,20.8A75,75,0,0,0,203.4,79.14a74.57,74.57,0,0,0,20,5.14,74.36,74.36,0,0,0,8.57.49h.76a90.2,90.2,0,0,1,25.56-14.44,13.19,13.19,0,0,1,4-3.62,15.33,15.33,0,0,1,7.75-1.93H283a74.77,74.77,0,0,0,12.4-14.9V35.23Zm-217.5,0H71.87V3.73H75.2ZM93.33,22.72a7.31,7.31,0,0,0,1.53,2.48,7.17,7.17,0,0,0,2.34,1.62,8.61,8.61,0,0,0,3.1.54,10.78,10.78,0,0,0,3.51-.59l.36-.14v-8h9.23V32a22.74,22.74,0,0,1-6.57,3,26.28,26.28,0,0,1-7.16,1,20.72,20.72,0,0,1-7.06-1.17A17.07,17.07,0,0,1,87,31.36a15.74,15.74,0,0,1-3.65-5.22,16.55,16.55,0,0,1-1.3-6.66,16.55,16.55,0,0,1,1.3-6.66A15.45,15.45,0,0,1,87.07,7.6,16.41,16.41,0,0,1,92.7,4.23a22.34,22.34,0,0,1,15.52.36,15.56,15.56,0,0,1,6.08,4.5l-6.8,6a10.47,10.47,0,0,0-3.24-2.56,8,8,0,0,0-3.82-.9,9.2,9.2,0,0,0-3.2.54,6.55,6.55,0,0,0-2.38,1.57c-.16.17-.32.36-.47.55s-.22.3-.32.46a.22.22,0,0,0,0,.08l0,.07-.06.1s0,0,0,0l0,0a2,2,0,0,0-.13.25h0a4.09,4.09,0,0,0-.23.47.3.3,0,0,0,0,.08c0,.11-.1.23-.14.34a9.15,9.15,0,0,0-.54,3.28A9.31,9.31,0,0,0,93.33,22.72Zm49.12,12.51-7.18-10.14a21.51,21.51,0,0,1-2.54.15h-8.46v10h-3.33V3.73h11.79A16.56,16.56,0,0,1,139.61,5,9.61,9.61,0,0,1,144,8.73a10.31,10.31,0,0,1,1.58,5.8A10.37,10.37,0,0,1,144,20.29,10.18,10.18,0,0,1,142.61,22l-.32.3-.34.3h0c-.11.09-.22.18-.34.26l-.3.21,0,0s0,0,0,0h0l0,0a9,9,0,0,1-.94.56c-.22.12-.44.22-.66.32a12.32,12.32,0,0,1-1.2.45h0L146,35.18l0,0v0Zm32.47,0-2.11-5.49h-12l-2.11,5.49H147.9l13.77-31.5h10.44l13.77,31.5ZM211.13,6.61H200.06V35.23h-3.33V6.61H185.66V3.73h25.47Zm9.1,28.62H216.9V3.73h3.33Zm41.08-9.18c-.07.17-.15.33-.23.49s-.12.27-.19.4,0,0,0,0l-.26.48c-.13.24-.27.47-.41.7s-.13.19-.18.29-.1.15-.15.22h0l-.35.5-.36.48-.41.48a14.2,14.2,0,0,1-1.13,1.2A17,17,0,0,1,252,34.74,20.13,20.13,0,0,1,244.88,36L244,36l-.56,0-.23,0h-.33l-.64-.07-1-.15c-.28,0-.55-.1-.82-.16l-.48-.11-.6-.15c-.51-.14-1-.3-1.52-.48a16.82,16.82,0,0,1-5.62-3.42,16.34,16.34,0,0,1-3.74-5.27c-.17-.4-.32-.81-.46-1.22a.49.49,0,0,0,0-.11c0-.14-.09-.29-.13-.44l-.12-.44c0-.15-.08-.3-.11-.45a0,0,0,0,1,0,0s0,0,0-.05-.07-.28-.09-.43-.06-.28-.08-.42-.06-.41-.1-.62h0c0-.2,0-.41-.07-.61a15.49,15.49,0,0,1-.08-1.8,15.22,15.22,0,0,1,.08-1.79,12.15,12.15,0,0,1,.17-1.21h0l0-.14s0,0,0,0,0,0,0-.05a.36.36,0,0,1,0-.1.17.17,0,0,1,0-.07s0,0,0,0,.07-.28.11-.42.11-.46.17-.69.13-.44.19-.65c0,0,0,0,0-.06s.11-.33.17-.49a.06.06,0,0,1,0,0c.09-.24.18-.48.29-.72a15.89,15.89,0,0,1,3.74-5.22,16.42,16.42,0,0,1,5.62-3.46c.35-.13.71-.25,1.07-.36l.26-.08c.34-.1.69-.2,1-.28s.45-.11.68-.15l.59-.11.09,0,.43-.06H242l.12,0,.15,0,.19,0,.47-.05h0c.32,0,.65-.06,1-.07s.61,0,.91,0A20.1,20.1,0,0,1,252,4.23c.52.19,1,.41,1.53.65l.74.38a12.71,12.71,0,0,1,1.41.87c.23.15.45.31.67.48h0l.64.52c.21.18.42.36.62.55s.39.37.58.56l.36.39.15.16c.14.16.29.33.42.5l.28.36.15.2.18.24a1.37,1.37,0,0,0,.15.21l.08.12a.09.09,0,0,0,0,.05l.33.51a.18.18,0,0,0,.05.08l0,0,0,.06.26.46c.11.21.22.42.32.63s.21.42.3.64.21.5.3.75h0c.08.22.16.44.23.66h0l.09.29c0,.1.06.19.08.28s0,0,0,.05a3.58,3.58,0,0,1,.14.54.19.19,0,0,0,0,.08l0,.12,0,.12c.05.2.09.39.12.59s.07.4.1.59c0,0,0,0,0,.05.05.34.09.68.11,1a3.55,3.55,0,0,1,0,.46c0,.32,0,.63,0,.95A15.83,15.83,0,0,1,261.31,26.05Z"/><path class="cls-2" d="M57.72,3.73h2.74v31.5H57.27V10L44.89,31.23H43.32l-12.38-21v25H27.76V34H15.93l8.36,69.41A89.4,89.4,0,0,1,8.23,88.5L0,19.87H27.76V3.73h2.73L44.17,27.07Z"/><rect class="cls-2" x="71.87" y="3.73" width="3.33" height="31.5"/><path class="cls-2" d="M93.33,16.2a9.15,9.15,0,0,0-.54,3.28,9.42,9.42,0,0,0,.54,3.24,7.31,7.31,0,0,0,1.53,2.48,7.17,7.17,0,0,0,2.34,1.62,8.61,8.61,0,0,0,3.1.54,10.78,10.78,0,0,0,3.51-.59l.36-.14v-8h9.23V32a22.47,22.47,0,0,1-6.57,3,26.28,26.28,0,0,1-7.16,1,20.72,20.72,0,0,1-7.06-1.17A17.07,17.07,0,0,1,87,31.36a15.74,15.74,0,0,1-3.65-5.22,16.55,16.55,0,0,1-1.3-6.66,16.55,16.55,0,0,1,1.3-6.66A15.45,15.45,0,0,1,87.07,7.6,16.41,16.41,0,0,1,92.7,4.23a22.34,22.34,0,0,1,15.52.36,15.56,15.56,0,0,1,6.08,4.5l-6.8,6a10.47,10.47,0,0,0-3.24-2.56,8,8,0,0,0-3.82-.9,9.2,9.2,0,0,0-3.2.54,6.55,6.55,0,0,0-2.38,1.57A7.32,7.32,0,0,0,93.33,16.2Z"/><path class="cls-2" d="M138.4,24.43l7.69,10.8h-3.64l-7.18-10.14a21.51,21.51,0,0,1-2.54.15h-8.46v10h-3.33V3.73h11.79A16.56,16.56,0,0,1,139.61,5,9.61,9.61,0,0,1,144,8.73a10.31,10.31,0,0,1,1.58,5.8A10.37,10.37,0,0,1,144,20.29,10,10,0,0,1,139.61,24,10.9,10.9,0,0,1,138.4,24.43Z"/><path class="cls-2" d="M147,197.49q0,3.51-.33,7v0H33.17v0H29.44a29.83,29.83,0,0,1-3-.15,28,28,0,0,1-4.42-.8h0l-6.6-55.12c.89-1,1.8-2,2.74-3L19.58,144q1.44-1.41,2.94-2.73c.5-.44,1-.88,1.53-1.3,1-.85,2.07-1.68,3.14-2.47.53-.4,1.08-.8,1.62-1.17,2-1.37,4-2.65,6-3.83.82-.47,1.65-.92,2.5-1.36l1.28-.65c.85-.43,1.71-.83,2.58-1.22s1.74-.77,2.62-1.12c1.33-.54,2.67-1,4-1.49s2.72-.88,4.1-1.26c.92-.26,1.84-.5,2.77-.71.7-.17,1.4-.32,2.1-.46,1.4-.29,2.82-.54,4.24-.75.72-.11,1.43-.2,2.14-.28s1.42-.16,2.13-.22q3.32-.3,6.67-.29h1a62.74,62.74,0,0,0,5.51,10.15c.63.95,1.3,1.88,2,2.79.46.61.92,1.21,1.4,1.79s1,1.17,1.46,1.74,1,1.13,1.52,1.68l.78.82c.53.53,1.06,1.06,1.6,1.58h0q.81.8,1.65,1.53c.28.25.56.5.85.74s.79.67,1.19,1c.6.49,1.21,1,1.83,1.43,1.23.94,2.49,1.82,3.79,2.66.65.42,1.31.82,2,1.22l1.34.77c1,.55,2,1.07,3,1.57s2,1,3.07,1.41c.56.24,1.11.47,1.68.69l1.48.56c1,.36,2,.7,3,1l1.53.45c1,.29,2.06.55,3.1.78.53.12,1.05.23,1.58.33l1.58.29.33.05c1.08.19,2.17.34,3.27.46a3,3,0,0,0,.42,0c.23,0,.46.06.7.08s.78.08,1.18.1.77.06,1.16.07q1.28.09,2.55.09h1a62.4,62.4,0,0,0,6.41-.33h.14c1.07,1.85,2.05,3.75,3,5.67q.9,1.93,1.68,3.9h0c.52,1.31,1,2.64,1.45,4,.51,1.51,1,3,1.37,4.58.15.58.3,1.16.44,1.74s.24,1,.35,1.53.24,1.12.34,1.69c.06.26.11.52.15.79.1.52.19,1,.27,1.57s.14.91.2,1.36.1.72.14,1.08c0,.05,0,.11,0,.16.07.5.12,1,.17,1.49s.09.92.13,1.38.08.92.11,1.38c0,.12,0,.23,0,.35v.1c0,.33,0,.66.07,1s0,.68,0,1C147,195.83,147,196.66,147,197.49Z"/><path class="cls-3" d="M191,92.92a60.42,60.42,0,0,0-10.53-28.55h0A60.5,60.5,0,0,0,74.34,120.63c.28.71.57,1.42.88,2.12a60.54,60.54,0,0,0,55.58,36.48c1.85,0,3.69-.08,5.5-.25l.6-.06A60.37,60.37,0,0,0,191,92.92Zm-90.58,9.66v14.73c-9.72-3.62-16.62-8.76-18.85-14.73ZM81.62,94.75c2.23-6,9.13-11.22,18.85-14.85V94.75Zm18.84,43.37a48.83,48.83,0,0,1-12.3-13.75c-.82-1.34-1.56-2.72-2.24-4.13-.37-.73-.71-1.48-1-2.23,1,.69,2,1.36,3.1,2a63.31,63.31,0,0,0,12.46,5.59ZM85,79.38a50.56,50.56,0,0,1,15.57-20.11V71.75A60.45,60.45,0,0,0,85,79.38Zm41.93,69a49.46,49.46,0,0,1-18.61-5.26V127.78a104.22,104.22,0,0,0,18.62,2.34Zm0-25.95a101.65,101.65,0,0,1-18.62-2.57V102.58h18.62Zm0-27.59H108.32V77.58A101.65,101.65,0,0,1,126.93,75Zm0-27.47a93.38,93.38,0,0,0-18.62,2.33V54.32a47.59,47.59,0,0,1,18.62-5.26ZM161,59q.93.72,1.83,1.47a49.82,49.82,0,0,1,14.1,19.1,59.84,59.84,0,0,0-15.93-8Zm19,35.85-18.85,0V80C170.84,83.63,177.87,88.89,180,94.85ZM134.77,49.1a51.3,51.3,0,0,1,18.39,5.14V69.66a99,99,0,0,0-18.39-2.33Zm18.39,94.08a48.64,48.64,0,0,1-18.39,5.14v-18.2a99.85,99.85,0,0,0,18.39-2.34Zm0-23.38a89.78,89.78,0,0,1-18.39,2.45V102.64h18.39Zm0-25H134.78V75.05a98.37,98.37,0,0,1,18.39,2.57ZM161,138.3V125.56a56.16,56.16,0,0,0,15.93-7.84A50.27,50.27,0,0,1,161,138.3Zm.13-20.93h0V102.64H180C177.76,108.61,170.73,113.75,161.13,117.37Z"/><path class="cls-1" d="M295.44,89.44v6H270.1a15.2,15.2,0,0,1-7.75-1.93,13.61,13.61,0,0,1-5.14-5.37,16.23,16.23,0,0,1-1.79-7.1v0q2.63-.85,5.16-1.9v1a9.5,9.5,0,0,0,1.15,4.9,8.09,8.09,0,0,0,3.34,3.22,10.25,10.25,0,0,0,5,1.19Z"/><path class="cls-1" d="M285.14,100.2v10.29H257.47a53,53,0,0,1,.28,5.49,54.64,54.64,0,0,1-.51,7.45h27.9v10.3h10.3V100.15Zm10.21,52h.09V137.71h-.09l-39.27-1.53v10.07l16.9.17,12.27.06L273,147.83l-16.9,1.76v8l16.9,1.92,11.94,1.25L273,160.9H256.1v10.34l39.27-1.52h.07V155.58h-.07l-14.45-1.11-8.66-.46,8.66-.56Z"/><path class="cls-1" d="M295.44,175.84v1.93a28.76,28.76,0,0,1-1.27,6.25l-30.29,15.74,12.21-.45h6.68a29.21,29.21,0,0,1-16.64,5.16H256.08v-6.8L287.4,181.1l-11.81.51H256.08v-5.77Z"/><path class="cls-2" d="M190.2,175v29.52h-7.06V175a12.44,12.44,0,0,0-1.32-5.87,9.88,9.88,0,0,0-3.83-3.89,11.39,11.39,0,0,0-5.74-1.39,11,11,0,0,0-5.68,1.39,9.4,9.4,0,0,0-3.76,3.89,11.88,11.88,0,0,0-1.39,5.87v29.47h-7.06V175a17.82,17.82,0,0,1,2.24-9,15.87,15.87,0,0,1,6.27-6,19.6,19.6,0,0,1,9.38-2.17,20,20,0,0,1,9.43,2.12,15.74,15.74,0,0,1,6.27,6A17.8,17.8,0,0,1,190.2,175Z"/><path class="cls-3" d="M136.91,192.55v-32.3a62.4,62.4,0,0,1-6.41.33c-.33,0-.66,0-1,0q-1.27,0-2.55-.09c-.39,0-.78,0-1.16-.07s-.79-.06-1.18-.1-.47,0-.7-.08a3,3,0,0,1-.42,0c-.57-.05-1.14-.12-1.7-.2v32.57h-12v11.94h36.87v0h2.27V192.55Zm-41.8-33.92-.2,19.73-.07,14.32-1.58-14.32-2.05-19.73h-9.3l-2.25,19.73-1.45,13.93L78,178.36V158.63H65.94l1.77,45.84v0h16.5v0l1.3-16.87L86,177.5l.66,10.1,1.43,16.87v0H105v0l1.78-45.84Z"/><path class="cls-1" d="M60.56,158.63v46.06H51.85l-.11-.22-19.1-36.78L33.17,182v22.47H29.44a29.83,29.83,0,0,1-3-.15V158.63h8.65l19.33,36.56-.59-13.79V158.63Z"/><path class="cls-1" d="M295.44,26.71v8.52H292.7L272.45,9.69V35.23h-3.33V3.73h2.74l20.3,25.55V15.68A29,29,0,0,1,295.44,26.71Z"/><rect class="cls-1" x="216.9" y="3.73" width="3.33" height="31.5"/><polygon class="cls-1" points="211.13 3.73 211.13 6.61 200.06 6.61 200.06 35.23 196.73 35.23 196.73 6.61 185.66 6.61 185.66 3.73 211.13 3.73"/><rect class="cls-1" x="71.87" y="3.73" width="3.33" height="31.5"/><polygon class="cls-1" points="60.46 3.73 60.46 35.23 57.27 35.23 57.27 10.03 44.89 31.23 43.32 31.23 30.94 10.18 30.94 35.23 27.75 35.23 27.75 3.73 30.49 3.73 44.17 27.07 57.72 3.73 60.46 3.73"/><path class="cls-1" d="M139.23,25.59l-.82-1.14v0a12.5,12.5,0,0,0,1.21-.45,9.92,9.92,0,0,0,1.6-.87h0s0,0,0,0l0,0c.22-.15.43-.31.64-.48h0l.34-.3.32-.3A10.18,10.18,0,0,0,144,20.29a10.37,10.37,0,0,0,1.58-5.76A10.31,10.31,0,0,0,144,8.73,9.61,9.61,0,0,0,139.61,5a16.57,16.57,0,0,0-6.88-1.31H120.94v31.5h3.33v-10h8.46a21.51,21.51,0,0,0,2.54-.15l7.18,10.14h3.64Zm-6.59-3.18v0h-8.37V6.61h8.37c3.15,0,5.54.69,7.15,2.07a7.21,7.21,0,0,1,2.48,5.85,7.16,7.16,0,0,1-2.48,5.81Q137.36,22.41,132.64,22.41Z"/><path class="cls-3" d="M262.25,15.7l0-.12a.19.19,0,0,1,0-.08c-.05-.19-.1-.39-.16-.59l-.18-.58c-.07-.22-.15-.44-.23-.66h0c-.1-.25-.2-.5-.31-.75s-.19-.43-.29-.64-.21-.42-.32-.63l-.26-.46,0-.06,0,0a.18.18,0,0,1-.05-.08l-.33-.51a.09.09,0,0,1,0-.05l-.08-.12a1.37,1.37,0,0,1-.15-.21l-.18-.24-.15-.2-.28-.36c-.13-.17-.28-.34-.42-.5l-.15-.16-.36-.39c-.19-.19-.38-.38-.58-.56s-.41-.37-.62-.55l-.64-.52h0c-.22-.17-.44-.33-.67-.48-.45-.31-.93-.6-1.41-.87l-.74-.38c-.5-.24-1-.46-1.53-.65A20.1,20.1,0,0,0,244.88,3c-.3,0-.61,0-.91,0s-.65,0-1,.07h0l-.47.05-.19,0-.15,0-.12,0h-.11l-.43.06-.09,0-.15,0a17.55,17.55,0,0,0-3.49.9,16.42,16.42,0,0,0-5.62,3.46,15.89,15.89,0,0,0-3.74,5.22,8.21,8.21,0,0,0-.29.78.06.06,0,0,0,0,0c-.06.16-.12.33-.17.49s0,0,0,.06l0,.08c-.06.19-.11.38-.16.57s-.12.46-.17.69-.08.28-.11.42,0,0,0,0a.17.17,0,0,0,0,.07.36.36,0,0,0,0,.1s0,0,0,.05,0,0,0,0l0,.14h0a12.15,12.15,0,0,0-.17,1.21,15.22,15.22,0,0,0-.08,1.79,15.49,15.49,0,0,0,.08,1.8c0,.2.05.41.07.61h0c0,.21.07.42.1.62a16.67,16.67,0,0,0,1,3.53,16.34,16.34,0,0,0,3.74,5.27,16.82,16.82,0,0,0,5.62,3.42,20.09,20.09,0,0,0,5.41,1.2l.79,0,.91,0A20.13,20.13,0,0,0,252,34.74a17,17,0,0,0,5.63-3.42,14.2,14.2,0,0,0,1.13-1.2c.27-.31.52-.63.77-1l.35-.5h0c.05-.07.09-.15.15-.22s.12-.19.18-.29.28-.46.41-.7l.26-.48s0,0,0,0,.13-.27.19-.4a16.07,16.07,0,0,0,1.55-7.06A15.51,15.51,0,0,0,262.25,15.7Zm-10.84,7.11a7.31,7.31,0,0,1-1.53,2.48,6.56,6.56,0,0,1-2.25,1.53,6.85,6.85,0,0,1-2.75.54,7.22,7.22,0,0,1-2.79-.54,7.07,7.07,0,0,1-2.25-1.53,7.54,7.54,0,0,1-1.48-2.48,9.69,9.69,0,0,1-.54-3.33,9.15,9.15,0,0,1,.54-3.28,7,7,0,0,1,1.48-2.48,6.77,6.77,0,0,1,2.25-1.57,7.22,7.22,0,0,1,2.79-.54,6.85,6.85,0,0,1,2.75.54,6.23,6.23,0,0,1,2.25,1.57,6.58,6.58,0,0,1,1.53,2.48,9.15,9.15,0,0,1,.54,3.28A9.69,9.69,0,0,1,251.41,22.81Z"/><path class="cls-3" d="M104.17,18.63h9.23V32a22.47,22.47,0,0,1-6.57,3,26.28,26.28,0,0,1-7.16,1,20.72,20.72,0,0,1-7.06-1.17A17.07,17.07,0,0,1,87,31.36a15.74,15.74,0,0,1-3.65-5.22,16.55,16.55,0,0,1-1.3-6.66,16.55,16.55,0,0,1,1.3-6.66A15.45,15.45,0,0,1,87.07,7.6,16.41,16.41,0,0,1,92.7,4.23a22.34,22.34,0,0,1,15.52.36,15.56,15.56,0,0,1,6.08,4.5l-6.8,6a10.47,10.47,0,0,0-3.24-2.56,8,8,0,0,0-3.82-.9,9.2,9.2,0,0,0-3.2.54,6.55,6.55,0,0,0-2.38,1.57,7.31,7.31,0,0,0-1.53,2.48,9.15,9.15,0,0,0-.54,3.28,9.42,9.42,0,0,0,.54,3.24,7.31,7.31,0,0,0,1.53,2.48,7.17,7.17,0,0,0,2.34,1.62,8.61,8.61,0,0,0,3.1.54,10.78,10.78,0,0,0,3.51-.59l.36-.14Z"/><path class="cls-3" d="M172.13,3.73H161.69l-13.77,31.5h10.8l2.11-5.49h12l2.11,5.49h11Zm-8.36,18.36,2.85-7.42.2-.51,3.05,7.93Z"/><polygon class="cls-2" points="169.87 22.09 163.77 22.09 166.62 14.67 166.82 14.16 169.87 22.09"/></g></g></g></g></svg>